<svg width="858" height="231" viewBox="0 0 858 231" fill="none" xmlns="http://www.w3.org/2000/svg">
<path d="M98 32.3C110.533 32.3 120.433 33.8333 127.7 36.9C134.967 39.9 140.033 44.1 142.9 49.5C145.833 54.8333 147.3 61.4 147.3 69.2C147.3 76.6 145.633 83.0667 142.3 88.6C138.967 94.1333 133.967 98.4333 127.3 101.5C120.633 104.5 112.433 106 102.7 106C96.7667 106 90.7333 106 84.6 106C78.4667 106 72.2667 105.967 66 105.9C66.5333 92.7667 66.8 80.5333 66.8 69.2C66.8 57.7333 66.5333 45.7667 66 33.3C73.9333 32.6333 84.6 32.3 98 32.3ZM105.5 86.1C111.7 86.1 115.833 84.6 117.9 81.6C119.967 78.6 121 74.4667 121 69.2C121 64.1333 119.9 60.0333 117.7 56.9C115.567 53.7667 111.5 52.2 105.5 52.2C99.0333 52.2 94.2 52.4 91 52.8V86.1H105.5ZM223.158 81H190.558C191.091 83.9333 192.391 86.3333 194.458 88.2C196.591 90 199.591 90.9 203.458 90.9C206.258 90.9 208.891 90.3667 211.358 89.3C213.824 88.1667 215.791 86.6 217.258 84.6C221.724 86.8 227.658 89.1667 235.058 91.7C232.991 96.3667 229.224 100.1 223.758 102.9C218.358 105.633 211.291 107 202.558 107C191.224 107 182.824 104.4 177.358 99.2C171.958 93.9333 169.258 87.0333 169.258 78.5C169.258 70.1667 171.958 63.4 177.358 58.2C182.758 53 191.158 50.4 202.558 50.4C209.358 50.4 215.258 51.5333 220.258 53.8C225.258 56.0667 229.091 59.2333 231.758 63.3C234.424 67.3 235.758 71.9 235.758 77.1C235.758 78.8333 235.691 80.1333 235.558 81H223.158ZM203.958 65.5C200.624 65.5 197.891 66.1333 195.758 67.4C193.624 68.6667 192.124 70.4 191.258 72.6H214.858C214.058 70.4667 212.758 68.7667 210.958 67.5C209.158 66.1667 206.824 65.5 203.958 65.5ZM290.019 107C284.419 107 278.719 106.233 272.919 104.7C267.185 103.1 261.785 100.7 256.719 97.5L267.219 83.2C270.285 85.4 273.985 87.1333 278.319 88.4C282.652 89.6 286.385 90.2 289.519 90.2C292.519 90.2 294.819 89.8 296.419 89C298.085 88.1333 298.919 87.0333 298.919 85.7C298.919 84.6333 298.519 83.8 297.719 83.2C296.919 82.6 295.819 82.3 294.419 82.3C293.552 82.3 292.552 82.3333 291.419 82.4C290.352 82.4667 289.485 82.5333 288.819 82.6C285.352 83 281.785 83.2 278.119 83.2C272.185 83.2 267.352 82.1 263.619 79.9C259.952 77.6333 258.119 73.9667 258.119 68.9C258.119 63.0333 260.885 58.5 266.419 55.3C271.952 52.0333 280.085 50.4 290.819 50.4C296.085 50.4 301.385 51.1667 306.719 52.7C312.119 54.1667 316.885 56.4 321.019 59.4L309.519 71C305.719 69 302.152 67.6 298.819 66.8C295.552 65.9333 292.252 65.5 288.919 65.5C286.585 65.5 284.585 65.9667 282.919 66.9C281.252 67.8333 280.419 68.9 280.419 70.1C280.419 71.0333 280.752 71.7667 281.419 72.3C282.152 72.8333 283.085 73.1 284.219 73.1C285.352 73.1 286.919 73 288.919 72.8C293.785 72.4667 297.419 72.3 299.819 72.3C306.752 72.3 312.119 73.4667 315.919 75.8C319.719 78.1333 321.619 81.7 321.619 86.5C321.619 93.7 318.819 98.9333 313.219 102.2C307.619 105.4 299.885 107 290.019 107ZM357.017 45.5C352.817 45.5 349.684 44.4667 347.617 42.4C345.617 40.3333 344.617 37.6333 344.617 34.3C344.617 31.0333 345.617 28.3333 347.617 26.2C349.684 24.0667 352.817 23 357.017 23C361.017 23 364.084 24.1 366.217 26.3C368.351 28.4333 369.417 31.1 369.417 34.3C369.417 37.6333 368.384 40.3333 366.317 42.4C364.251 44.4667 361.151 45.5 357.017 45.5ZM345.417 106C345.884 95.2667 346.117 86.4 346.117 79.4C346.117 71.0667 345.851 61.7333 345.317 51.4H369.317C368.784 61.3333 368.517 70.6667 368.517 79.4C368.517 86.7333 368.751 95.6 369.217 106H345.417ZM440.583 51.4H459.783C459.449 62.3333 459.283 77.8667 459.283 98C459.283 105.933 457.683 112.433 454.483 117.5C451.349 122.567 447.183 126.233 441.983 128.5C436.783 130.833 430.983 132 424.583 132C418.249 132 412.583 131.067 407.583 129.2C402.583 127.4 398.783 124.967 396.183 121.9L400.683 106.6C404.283 108.667 407.683 110.133 410.883 111C414.083 111.933 417.416 112.4 420.883 112.4C432.216 112.4 437.883 107.6 437.883 98C437.883 96.6 437.916 95.6 437.983 95C437.983 94.6 437.983 94.0667 437.983 93.4C438.049 92.7333 438.049 91.8667 437.983 90.8C434.583 100.267 427.383 105 416.383 105C411.916 105 407.916 103.8 404.383 101.4C400.916 99 398.216 95.7667 396.283 91.7C394.349 87.5667 393.383 83.0333 393.383 78.1C393.383 73.0333 394.349 68.4 396.283 64.2C398.216 59.9333 400.916 56.5667 404.383 54.1C407.849 51.6333 411.749 50.4 416.083 50.4C427.349 50.4 434.683 54.3667 438.083 62.3L440.583 51.4ZM426.783 89C428.316 89 429.916 88.6667 431.583 88C433.249 87.2667 434.683 86.1333 435.883 84.6C437.083 83 437.683 81.0333 437.683 78.7C437.683 74.5667 436.749 71.6333 434.883 69.9C433.016 68.1 430.249 67.2 426.583 67.2C423.383 67.2 420.849 68.2667 418.983 70.4C417.116 72.5333 416.183 75.3 416.183 78.7C416.183 81.7667 417.183 84.2667 419.183 86.2C421.249 88.0667 423.783 89 426.783 89ZM521.797 106C522.197 96.2 522.397 87.1667 522.397 78.9C522.397 75.9667 521.664 73.6333 520.197 71.9C518.797 70.1667 516.997 69.3 514.797 69.3C512.597 69.3 510.73 70.3 509.197 72.3C507.664 74.2333 506.764 76.9 506.497 80.3C506.364 85.3667 506.297 88.9667 506.297 91.1C506.297 95.6333 506.43 100.6 506.697 106H482.797C483.33 96.4 483.597 87.3333 483.597 78.8C483.597 70.2667 483.33 61.1333 482.797 51.4C487.197 51.6 490.564 51.7 492.897 51.7C495.364 51.7 498.73 51.6 502.997 51.4L505.897 66.1C507.43 60.7667 509.83 56.8333 513.097 54.3C516.364 51.7 520.164 50.4 524.497 50.4C528.497 50.4 531.964 51.3 534.897 53.1C537.83 54.8333 540.03 57.2 541.497 60.2C543.03 63.2 543.797 66.5667 543.797 70.3V84.7C543.797 93.5667 543.964 100.667 544.297 106H521.797ZM599.628 107C594.028 107 588.328 106.233 582.528 104.7C576.795 103.1 571.395 100.7 566.328 97.5L576.828 83.2C579.895 85.4 583.595 87.1333 587.928 88.4C592.261 89.6 595.995 90.2 599.128 90.2C602.128 90.2 604.428 89.8 606.028 89C607.695 88.1333 608.528 87.0333 608.528 85.7C608.528 84.6333 608.128 83.8 607.328 83.2C606.528 82.6 605.428 82.3 604.028 82.3C603.161 82.3 602.161 82.3333 601.028 82.4C599.961 82.4667 599.095 82.5333 598.428 82.6C594.961 83 591.395 83.2 587.728 83.2C581.795 83.2 576.961 82.1 573.228 79.9C569.561 77.6333 567.728 73.9667 567.728 68.9C567.728 63.0333 570.495 58.5 576.028 55.3C581.561 52.0333 589.695 50.4 600.428 50.4C605.695 50.4 610.995 51.1667 616.328 52.7C621.728 54.1667 626.495 56.4 630.628 59.4L619.128 71C615.328 69 611.761 67.6 608.428 66.8C605.161 65.9333 601.861 65.5 598.528 65.5C596.195 65.5 594.195 65.9667 592.528 66.9C590.861 67.8333 590.028 68.9 590.028 70.1C590.028 71.0333 590.361 71.7667 591.028 72.3C591.761 72.8333 592.695 73.1 593.828 73.1C594.961 73.1 596.528 73 598.528 72.8C603.395 72.4667 607.028 72.3 609.428 72.3C616.361 72.3 621.728 73.4667 625.528 75.8C629.328 78.1333 631.228 81.7 631.228 86.5C631.228 93.7 628.428 98.9333 622.828 102.2C617.228 105.4 609.495 107 599.628 107Z" fill="#BCA898"/>
<path d="M757 210.7C744.467 210.7 734.567 209.167 727.3 206.1C720.033 203.1 714.967 198.9 712.1 193.5C709.167 188.167 707.7 181.6 707.7 173.8C707.7 166.4 709.367 159.933 712.7 154.4C716.033 148.867 721.033 144.567 727.7 141.5C734.367 138.5 742.567 137 752.3 137C758.233 137 764.267 137 770.4 137C776.533 137 782.733 137.033 789 137.1C788.467 150.233 788.2 162.467 788.2 173.8C788.2 185.267 788.467 197.233 789 209.7C781.067 210.367 770.4 210.7 757 210.7ZM749.5 156.9C743.3 156.9 739.167 158.4 737.1 161.4C735.033 164.4 734 168.533 734 173.8C734 178.867 735.1 182.967 737.3 186.1C739.433 189.233 743.5 190.8 749.5 190.8C755.967 190.8 760.8 190.6 764 190.2V156.9H749.5ZM631.842 162H664.442C663.909 159.067 662.609 156.667 660.542 154.8C658.409 153 655.409 152.1 651.542 152.1C648.742 152.1 646.109 152.633 643.642 153.7C641.176 154.833 639.209 156.4 637.742 158.4C633.276 156.2 627.342 153.833 619.942 151.3C622.009 146.633 625.776 142.9 631.242 140.1C636.642 137.367 643.709 136 652.442 136C663.776 136 672.176 138.6 677.642 143.8C683.042 149.067 685.742 155.967 685.742 164.5C685.742 172.833 683.042 179.6 677.642 184.8C672.242 190 663.842 192.6 652.442 192.6C645.642 192.6 639.742 191.467 634.742 189.2C629.742 186.933 625.909 183.767 623.242 179.7C620.576 175.7 619.242 171.1 619.242 165.9C619.242 164.167 619.309 162.867 619.442 162H631.842ZM651.042 177.5C654.376 177.5 657.109 176.867 659.242 175.6C661.376 174.333 662.876 172.6 663.742 170.4H640.142C640.942 172.533 642.242 174.233 644.042 175.5C645.842 176.833 648.176 177.5 651.042 177.5ZM564.981 136C570.581 136 576.281 136.767 582.081 138.3C587.815 139.9 593.215 142.3 598.281 145.5L587.781 159.8C584.715 157.6 581.015 155.867 576.681 154.6C572.348 153.4 568.615 152.8 565.481 152.8C562.481 152.8 560.181 153.2 558.581 154C556.915 154.867 556.081 155.967 556.081 157.3C556.081 158.367 556.481 159.2 557.281 159.8C558.081 160.4 559.181 160.7 560.581 160.7C561.448 160.7 562.448 160.667 563.581 160.6C564.648 160.533 565.515 160.467 566.181 160.4C569.648 160 573.215 159.8 576.881 159.8C582.815 159.8 587.648 160.9 591.381 163.1C595.048 165.367 596.881 169.033 596.881 174.1C596.881 179.967 594.115 184.5 588.581 187.7C583.048 190.967 574.915 192.6 564.181 192.6C558.915 192.6 553.615 191.833 548.281 190.3C542.881 188.833 538.115 186.6 533.981 183.6L545.481 172C549.281 174 552.848 175.4 556.181 176.2C559.448 177.067 562.748 177.5 566.081 177.5C568.415 177.5 570.415 177.033 572.081 176.1C573.748 175.167 574.581 174.1 574.581 172.9C574.581 171.967 574.248 171.233 573.581 170.7C572.848 170.167 571.915 169.9 570.781 169.9C569.648 169.9 568.081 170 566.081 170.2C561.215 170.533 557.581 170.7 555.181 170.7C548.248 170.7 542.881 169.533 539.081 167.2C535.281 164.867 533.381 161.3 533.381 156.5C533.381 149.3 536.181 144.067 541.781 140.8C547.381 137.6 555.115 136 564.981 136ZM497.983 197.5C502.183 197.5 505.316 198.533 507.383 200.6C509.383 202.667 510.383 205.367 510.383 208.7C510.383 211.967 509.383 214.667 507.383 216.8C505.316 218.933 502.183 220 497.983 220C493.983 220 490.916 218.9 488.783 216.7C486.649 214.567 485.583 211.9 485.583 208.7C485.583 205.367 486.616 202.667 488.683 200.6C490.749 198.533 493.849 197.5 497.983 197.5ZM509.583 137C509.116 147.733 508.883 156.6 508.883 163.6C508.883 171.933 509.149 181.267 509.683 191.6H485.683C486.216 181.667 486.483 172.333 486.483 163.6C486.483 156.267 486.249 147.4 485.783 137H509.583ZM414.417 191.6H395.217C395.551 180.667 395.717 165.133 395.717 145C395.717 137.067 397.317 130.567 400.517 125.5C403.651 120.433 407.817 116.767 413.017 114.5C418.217 112.167 424.017 111 430.417 111C436.751 111 442.417 111.933 447.417 113.8C452.417 115.6 456.217 118.033 458.817 121.1L454.317 136.4C450.717 134.333 447.317 132.867 444.117 132C440.917 131.067 437.584 130.6 434.117 130.6C422.784 130.6 417.117 135.4 417.117 145C417.117 146.4 417.084 147.4 417.017 148C417.017 148.4 417.017 148.933 417.017 149.6C416.951 150.267 416.951 151.133 417.017 152.2C420.417 142.733 427.617 138 438.617 138C443.084 138 447.084 139.2 450.617 141.6C454.084 144 456.784 147.233 458.717 151.3C460.651 155.433 461.617 159.967 461.617 164.9C461.617 169.967 460.651 174.6 458.717 178.8C456.784 183.067 454.084 186.433 450.617 188.9C447.151 191.367 443.251 192.6 438.917 192.6C427.651 192.6 420.317 188.633 416.917 180.7L414.417 191.6ZM428.217 154C426.684 154 425.084 154.333 423.417 155C421.751 155.733 420.317 156.867 419.117 158.4C417.917 160 417.317 161.967 417.317 164.3C417.317 168.433 418.251 171.367 420.117 173.1C421.984 174.9 424.751 175.8 428.417 175.8C431.617 175.8 434.151 174.733 436.017 172.6C437.884 170.467 438.817 167.7 438.817 164.3C438.817 161.233 437.817 158.733 435.817 156.8C433.751 154.933 431.217 154 428.217 154ZM333.203 137C332.803 146.8 332.603 155.833 332.603 164.1C332.603 167.033 333.336 169.367 334.803 171.1C336.203 172.833 338.003 173.7 340.203 173.7C342.403 173.7 344.27 172.7 345.803 170.7C347.336 168.767 348.236 166.1 348.503 162.7C348.636 157.633 348.703 154.033 348.703 151.9C348.703 147.367 348.57 142.4 348.303 137H372.203C371.67 146.6 371.403 155.667 371.403 164.2C371.403 172.733 371.67 181.867 372.203 191.6C367.803 191.4 364.436 191.3 362.103 191.3C359.636 191.3 356.27 191.4 352.003 191.6L349.103 176.9C347.57 182.233 345.17 186.167 341.903 188.7C338.636 191.3 334.836 192.6 330.503 192.6C326.503 192.6 323.036 191.7 320.103 189.9C317.17 188.167 314.97 185.8 313.503 182.8C311.97 179.8 311.203 176.433 311.203 172.7V158.3C311.203 149.433 311.036 142.333 310.703 137H333.203ZM255.372 136C260.972 136 266.672 136.767 272.472 138.3C278.205 139.9 283.605 142.3 288.672 145.5L278.172 159.8C275.105 157.6 271.405 155.867 267.072 154.6C262.739 153.4 259.005 152.8 255.872 152.8C252.872 152.8 250.572 153.2 248.972 154C247.305 154.867 246.472 155.967 246.472 157.3C246.472 158.367 246.872 159.2 247.672 159.8C248.472 160.4 249.572 160.7 250.972 160.7C251.839 160.7 252.839 160.667 253.972 160.6C255.039 160.533 255.905 160.467 256.572 160.4C260.039 160 263.605 159.8 267.272 159.8C273.205 159.8 278.039 160.9 281.772 163.1C285.439 165.367 287.272 169.033 287.272 174.1C287.272 179.967 284.505 184.5 278.972 187.7C273.439 190.967 265.305 192.6 254.572 192.6C249.305 192.6 244.005 191.833 238.672 190.3C233.272 188.833 228.505 186.6 224.372 183.6L235.872 172C239.672 174 243.239 175.4 246.572 176.2C249.839 177.067 253.139 177.5 256.472 177.5C258.805 177.5 260.805 177.033 262.472 176.1C264.139 175.167 264.972 174.1 264.972 172.9C264.972 171.967 264.639 171.233 263.972 170.7C263.239 170.167 262.305 169.9 261.172 169.9C260.039 169.9 258.472 170 256.472 170.2C251.605 170.533 247.972 170.7 245.572 170.7C238.639 170.7 233.272 169.533 229.472 167.2C225.672 164.867 223.772 161.3 223.772 156.5C223.772 149.3 226.572 144.067 232.172 140.8C237.772 137.6 245.505 136 255.372 136Z" fill="#BBAFB4"/>
</svg>
