<svg width="56" height="81" viewBox="0 0 56 81" fill="none" xmlns="http://www.w3.org/2000/svg">
<path d="M25 80.1011C25 73.1011 23.8333 67.6844 21.5 63.8511C19.1667 60.0177 16.4167 57.2677 13.25 55.6011C10.0833 53.7677 7.25 52.6844 4.75 52.3511C2.41667 51.8511 1.08333 51.6011 0.75 51.6011V45.3511C0.916667 45.3511 2.33333 45.5177 5 45.8511C7.83333 46.1844 11.0833 47.2677 14.75 49.1011C18.5833 50.7677 22 53.6011 25 57.6011V0.601068H31.5V57.6011C34.5 53.6011 37.8333 50.7677 41.5 49.1011C45.3333 47.4344 48.6667 46.4344 51.5 46.1011C54.3333 45.6011 55.75 45.3511 55.75 45.3511V51.6011C55.5833 51.6011 54.25 51.8511 51.75 52.3511C49.25 52.6844 46.4167 53.7677 43.25 55.6011C40.0833 57.2677 37.3333 60.0177 35 63.8511C32.6667 67.6844 31.5 73.1011 31.5 80.1011H25Z" fill="#BBAFB4"/>
</svg>
